<svg xmlns="http://www.w3.org/2000/svg" width="659.6343" height="412.9627" viewBox="0 0 659.6343 412.9627">
  <g id="katman_2" data-name="katman 2">
    <g id="katman_1-2" data-name="katman 1">
      <g>
        <path d="M427.0458,220.4068a1.6191,1.6191,0,0,1-.7106-2.213c4.2855-5.0627,6.9944-11.2947,10.2437-16.9865-4.3891-3.1012-8.1417-6.269-10.6656-11.1022-8.4377-16.1945-9.7773-36.8224-.77-53.1353,10.0808-18.2743,32.3371-28.059,52.5875-25.9866,19.429,1.9836,34.2245,17.6229,38.621,36.3265,2.894,12.3013,3.4343,26.3567-2.99,37.6366-7.2905,12.7823-22.9076,21.2422-37.0962,23.1962-5.8768.8068-12.3309-1.14-17.7044,1.2139-4.5075,1.9836-8.1046,6.121-12.59,8.4451a24.1792,24.1792,0,0,1-10.3325,2.7015C432.7523,220.51,429.6511,220.8435,427.0458,220.4068Zm4.996-3.5231c5.4771.37,10.7543-1.769,15.4025-4.4853,2.5609-1.4951,6.7945-6.4911,9.6515-7.1128,10.747-2.3463,22.4191-1.0955,32.4555-6.2469,7.6828-3.945,15.9206-9.955,20.0359-17.7932,5.3512-10.2066,5.4475-23.7884,2.1538-34.676-3.02-9.97-9.4813-20.5835-18.822-25.8459-16.7126-9.4073-36.9038-5.9138-52.0843,5.0922-12.79,9.2814-19.0292,25.8534-17.3343,41.4187,1.2065,11.0948,5.5438,23.7736,15.1065,30.3979.8363.5773,1.6431,1.7986,1.2212,2.8348C437.467,206.0479,434.8025,211.488,432.0418,216.8837ZM373.6144,114.9874c-9.5109-9.4-17.2529-20.1395-24.2917-31.3157a2.8373,2.8373,0,0,0-1.0584-.8734c-1.9762.2073-4.6481.9622-5.6547,2.746-2.1539,3.8487-3.612,8.4377-7.0018,11.4945-1.7024-3.19.54-6.7724,1.7689-9.7848-.5625-.0592-1.7689-.03-2.1686.5033-2.48,3.2863-4.7962,6.7354-7.49,9.94a5.693,5.693,0,0,1-1.5617,1.1621l-1.6728-1.1769a11.6221,11.6221,0,0,1,2.79-5.7731c.37-.4663.3627-.9844-.1851-.77a47.68,47.68,0,0,1-11.08,3.22,2.2887,2.2887,0,0,1-2.1464-1.3322c.3553-.8216.4589-1.4507,1.4063-1.8208,3.9746-1.5247,7.8085-3.39,11.7757-4.959a83.2709,83.2709,0,0,1-8.0824-4.16,3.4848,3.4848,0,0,1-1.0362-1.2583l.2887-1.3989a6.2343,6.2343,0,0,1,1.4877.0371c4.4483,1.0954,8.9484,3.227,13.293,4.4631,1.2953.3626,3.9376-1.0141,4.8924-1.7616a30.0171,30.0171,0,0,1-8.7041-4.1818,1.2471,1.2471,0,0,1-.5847-1.5914s.57-.7845.7623-1.0436a5.0416,5.0416,0,0,1,1.4211.1481c3.9968,1.7245,7.7123,4.2928,11.8276,5.5289,1.199.3626,3.0716-1.3545,3.9376-1.9984a10.0663,10.0663,0,0,0-.77-1.8948C335.8446,59.01,330.5822,37.96,337.9836,18.08,342.04,7.1773,352.461-.52,364.0147.0275c9.1852.4293,18.3557,6.6761,22.39,15.0916,3.0716,6.4171,4.5,12.9674,6.269,19.8064,5.9138-7.18,12.7528-14.47,21.59-17.8968,7.2608-2.8126,14.3589-4.3373,22.1008-2.0872,10.7914,3.1308,16.7718,13.93,17.5564,24.5285.3108,4.2041-.5255,8.112-1.2287,12.19,5.2773-1.3175,10.5841-2.5017,15.9354-3.39-2.1168-1.6358-4.2632-3.19-6.3949-4.774a3.4406,3.4406,0,0,1-1.3618-2.5461l.7327-1.0584c4.8776,2.5387,10.34,4.4705,14.1961,8.4451.7031.7253.4,2.25-.1259,2.9532-2.9458,3.9228-5.6843,8.0232-8.2674,12.168a2.9325,2.9325,0,0,1-1.14.829,5.9765,5.9765,0,0,1-2.3832-1.917,42.275,42.275,0,0,1,6.6761-10.34c.5255-.5773-.1776-.6217-.94-.4515-5.9286,1.3249-11.9016,2.709-17.6673,4.4039a131.86,131.86,0,0,1-8.6894,15.2249C435.8683,82.08,424.2776,90.6,412.7239,96.5577c-11.9164,6.1432-25.0171,10.969-36.1563,18.5185C375.4352,115.809,374.5692,115.8608,373.6144,114.9874ZM601.077,226.5648a3.8724,3.8724,0,0,1-2.8644-1.7245c-1.1176-1.6209-2.3019-20.1765-2.5239-23.633-.6366-9.4739-1.6358-20.0506,2.3092-28.7621,2.6054-5.7362,8.3119-11.4131,14.8992-11.7388,10.2659-.5181,16.7422,10.1178,17.8968,19.1032a32.0416,32.0416,0,0,1-.2738,11.4575c6.0174-1.9169,11.8646-2.8421,17.8154-.6513,5.2846,1.9392,10.3176,6.3431,11.1614,12.0866,1.917,13.0415-16.69,19.88-26.6824,22.2341C622.3562,227.4086,611.7129,227.416,601.077,226.5648Zm-513.9964-50.33c-4.7666-1.0436-9.2593-3.8118-14.0481-4.2854-6.0174-.5848-13.034,3.6563-19.2068,4.241-14.1739,1.34-30.0427-2.176-40.6046-12.1828C3.7324,155.0146.0983,140.0488.0021,127.3553c-.1037-13.3819,3.6933-25.7646,13.2634-35.4013C27.8169,77.299,51.9013,76.0482,70.05,83.65c24.4768,10.2437,33.9729,38.4655,28.2367,62.89-1.014,4.3077-3.7673,7.7124-6.41,11.1319,4.4483,4.5149,9.0669,9.5035,14.3959,12.9452a2.1686,2.1686,0,0,1,.5107,2.5313,2.5455,2.5455,0,0,1-1.2508,1.0806C99.3,175.4428,93.4607,177.5374,87.0806,176.2347Zm1.4877-3.8932a29.477,29.477,0,0,0,8.8374.0889c2.398-.2591,2.176-.9548,2.8273-1.5026-3.8414-4.1152-7.6531-8.2748-11.3391-12.5529a2.1993,2.1993,0,0,1-.3182-2.9532c1.6579-2.324,3.59-4.6111,4.4261-7.4015a58.6759,58.6759,0,0,0,2.1612-10.3324c1.6579-14.9214-3.1382-32.0115-14.7734-42.0849C62.5965,80.1856,32.5168,78.6313,15.2787,96.35,7.27,104.5735,3.4808,117.46,4.1617,128.8356c1.4211,23.9512,13.0192,38.3471,37.1185,42.2773,10.6211,1.7319,21.6789-.3553,31.7523-3.5823A64.2886,64.2886,0,0,0,88.5683,172.3415Zm453.6594,65.0517c4.2485-11.835,6.2469-23.9956,9.2-36.1637,2.0872-8.5783,8.0972-14.6993,12.19-22.197,1.5691-2.8718,1.6654-6.2321,2.2945-9.3555-2.2427-.5921-4.811-1.5691-5.5215-3.9524-1.014-3.3751,2.1094-7.3275,3.8043-9.9624-6.158-6.7354-12.1236-13.4411-17.1492-21.05-10.3325-15.6246-19.7768-33.9285-18.4519-53.1279.8586-12.5085,5.2994-25.9866,17.12-32.0189,10.7914-5.4993,22.1527-.77,29.6356,7.668,6.98,7.86,11.1392,18.6,12.4789,28.888,9.881-8.2823,22.4117-18.4519,36.1341-16.1279,11.983,2.0355,21.2348,11.7684,20.1912,24.1289-1.2212,14.3737-10.7988,27.9628-20.813,37.7624-9.9106,9.7033-31.6339,26.1421-45.5931,27.2449,2.05,4.16,3.9672,9.7477-.3035,13.0858a3.6888,3.6888,0,0,1-2.9532.4737c-2.139-.7179-3.4935-2.5091-4.6407-4.3669-.755,4.7814-.6069,9.5183-3.2271,13.6632-3.116,4.9294-7.3793,9.1852-9.274,14.81-3.4121,10.1326-4.2559,20.9166-7.7938,30.9826a28.9733,28.9733,0,0,1-6.8242,10.9764C541.9761,239.5248,541.865,238.4146,542.2277,237.3932Zm-354.2944,11.08c-3.5231-6.7427-4.8554-15.4987-6.5134-22.9-1.7615-7.89-.9769-16.4239-2.7385-24.3509-1.1842-5.329-3.5527-10.17-4.5963-15.5357-1.0658-5.4549-.6069-11.4575-1.3323-16.9642-1.4951-11.3835-6.2765-21.5975-6.8612-33.1883-1.9984,1.0732-4.093,2.2279-6.4467,1.7246a4.0137,4.0137,0,0,1-3.1308-3.2789c-.6291-4.4113,3.079-9,5.9138-11.9978C139.2833,109.2364,119.055,92.85,103.1122,71.94c-8.8744-11.6425-14.9288-25.165-10.2511-39.82,2.894-9.0742,12.0053-13.0932,20.7982-13.219,13.1673-.1851,23.9068,13.4189,31.1973,22.8336,4.1892-14.5884,13.2783-27.2227,27.9036-32.0337,10.7914-3.5527,23.7,1.9466,30.4423,10.6064,5.4475,7.0166,7.0907,16.3943,7.6754,25.0318,7.1572,5.6917,12.7749,12.775,18.1484,20.1468,4.73-12.5825,15.2989-25.5351,28.666-29.147,12.3975-3.3455,23.9882,3.982,28.2589,15.6985,5.1588,14.1665.8956,31.2491-6.765,43.543-10.68,17.127-27.2153,31.5229-44.4163,41.7814-.0148.0074-1.0362.7994-1.11.8586,1.125,3.19,2.5165,6.4467,1.3766,9.7847-.9326,2.709-4.0634,2.9162-6.4615,2.9606a26.1826,26.1826,0,0,0,.0815,11.835c1.6357,6.3875,5.2032,11.6944,5.47,18.4741.2886,13.87-1.621,27.4818-.3035,41.3521l-.7106,1.3027a31.3662,31.3662,0,0,1-3.5971-10.9172c-1.2582-11.5389,1.2361-23.13.1777-34.6982-.5626-6.0914-4.4113-11.0282-5.3513-17.0012-.5551-3.5231.0518-6.8612.5255-10.3251a17.0805,17.0805,0,0,0,.074-2.0428c-2.0206,1.7912-3.6859,2.7164-6.41,2.5313-1.7763-.1258-2.6941-2.0058-3.0642-3.4565-.9474-3.7155,2.3167-7.5273,4.4779-10.1844a31.7352,31.7352,0,0,1-12.4937-7.7938c-6.7576-6.78-13.3819-13.7963-18.7924-21.6789-5.24,3.7451-9.4147,8.6893-14.5291,12.6121,2.7237,3.042,4.47,6.876,3.116,10.7766-1.0436,3.0124-5.4031,2.8791-7.8012,1.8355-1.014,11.1319,4.7,22.3007,7.0759,32.9293,1.3544,6.0322.3848,12.4641,2.0132,18.43,1.3174,4.7961,4.0782,9.1038,4.6481,14.0554,1.8948,16.5941,3.3455,33.0032,6.4393,49.4715a6.0274,6.0274,0,0,1,.0444.74l-.77,1.11C188.5772,249.7093,188.2515,249.0876,187.9333,248.4732ZM118.8256,411.8167c-13.678-10.932-29.6134-21.5827-39.4056-36.3413-5.181-7.8086-6.158-21.7012,2.5165-27.4595,13.1969-8.756,28.2515.9918,36.6892,11.6277,2.4351-4.056,4.5815-8.0084,7.8974-11.4723,4.885-5.1,13.6706-7.6827,20.3467-5.4031,9.9772,3.3973,11.2133,13.19,9.03,22.3821a78.3642,78.3642,0,0,1-17.0086,32.47c-4.6407,5.3661-9.3407,11.7906-15.6616,15.01A4.0851,4.0851,0,0,1,118.8256,411.8167Zm-8.86-96.5376c-15.8318-10.2659-34.18-15.5505-49.4568-26.7564a82.4162,82.4162,0,0,1-15.7355-14.9658c-4.4261-5.5215-5.3291-14.1517-10.91-17.771-5.5067-2.4351-11.3021-2.6867-16.9568-4.0116-.7846-.1924-1.5544-.1924-.9992.3923a39.9013,39.9013,0,0,1,6.3134,9.6,1.5522,1.5522,0,0,1-.34,1.48,2.4382,2.4382,0,0,1-2.4425.9548c-2.6276-4.3891-5.6548-8.6227-8.6524-12.775-.903-1.2508-1.051-1.991-.1332-2.9532,3.6415-3.8191,9.5035-5.9285,14.0036-8.4969l1.11,1.2879c-.185.4293-.222.97-.5551,1.3027a62.3762,62.3762,0,0,1-7.357,5.81l15.7873,3.3307c-2.6127-10.9246-.9622-23.1371,7.32-31.3009,11.5241-11.3465,30.5237-6.0914,41.6556,3.19,4.1522,3.4639,7.3571,7.557,11.08,11.4279,2.1834-10.51,4.9146-21.6123,13.3523-28.8066,7.8234-6.6613,19.8434-8.112,28.7326-2.96,10.2954,5.973,15.2914,18.363,16.12,29.7095,1.1694,16.0465-4.4631,32.33-12.0792,46.2445,1.1768,1.014,2.7237,2.3389,4.0708,1.8948,4.0782-1.3619,7.8678-3.834,11.8572-5.4549.9918-.4071,2.1242.6809,2.5683,1.4581a26.8346,26.8346,0,0,1-9.7478,5.2477c1.2509.9548,3.4047,2.102,4.9664,1.7171,4.4927-1.1176,8.8078-3.0642,13.2931-4.4705a3.5244,3.5244,0,0,1,1.4433.03c.0888.4441.1776.8882.2739,1.3323.0518.2738-.8438,1.14-.9844,1.2212a43.7055,43.7055,0,0,1-7.9122,3.6786c-.4219.1628.4811.8141.8807,1.014,3.4713,1.6875,7.1351,3.1456,10.7248,4.53.9326.3627,1.0658,1.0288,1.3545,1.8726-.5773.8067-1.1769,1.3692-2.0872,1.2286a60.51,60.51,0,0,1-11.08-3.22c-.5625-.2221-.6291.2812-.259.7549a19.7793,19.7793,0,0,1,2.9532,5.2033l-1.658,1.7911a4.2688,4.2688,0,0,1-1.7171-1.14c-2.65-3.1678-4.8776-6.7872-7.4459-9.918-.4219-.5181-1.3767-.5551-1.9836-.6069.7846,2.5239,2.9236,6.0618,1.9836,8.7337l-.9474,1.0214c-2.7163-3.301-4.2781-7.7271-6.4467-11.3316-.9548-1.584-3.5083-2.3981-5.1588-2.7608a1.7166,1.7166,0,0,0-1.769.8882c-6.8094,11.1466-14.5217,22.012-24.003,31.0862A2.1765,2.1765,0,0,1,109.966,315.2791ZM595.1706,376.46c-19.9544-3.1234-39.9977-6.2765-59.8189-10.0512-.9844-.1925-1.7171-1.8578-1.7689-2.7238-.5625-10.103.5107-20.2727,1.6727-30.2721,2.6794-22.9076,5.8176-45.7708,8.5117-68.6932a2.6525,2.6525,0,0,1,1.9244-2.3759c21.035-5.2328,42.6474-7.9936,64.2523-9.54a39.6842,39.6842,0,0,1,8.12.3331c1.28.17,1.2952-.0444,1.1842,1.2434-.4367,5.1885-.9622,10.3473-1.7393,15.5136-.2443,1.6283.03,1.85,1.2952,2.3166,2.99,1.0954,6.5429,1.4211,9.6,2.2871,1.8873.54,1.54,3.59,1.347,4.996-4.4409,32.2187-13.071,63.69-17.1566,96.0047-.111.8586-.3849,1.5987-1.1769,1.7838C605.9767,378.1251,600.47,377.3258,595.1706,376.46ZM613.63,271.107c.3256.037.6587.0814.9918.1258.4663-5.0034.903-10.0142,1.28-14.9806-.7549.03-1.5247-.03-2.2722.0148a492.134,492.134,0,0,0-54.5268,6.1432l1.3545.681c16.55,2.028,33.0032,4.9,49.4937,7.5125C611.1726,270.7961,612.4012,270.9516,613.63,271.107Zm-5.9064,102.7253a13.5759,13.5759,0,0,0,1.91-.0889,3.4185,3.4185,0,0,0,.4219-1.199,180.8673,180.8673,0,0,1,3.5009-27.3115c4.4409-22.8262,9.8069-45.4673,13.9888-68.3453-26.6084-3.9524-53.6238-10.4657-80.5282-11.5242-1.48,26.0607-7.1573,51.64-9.4221,77.6491-.54,6.18-1.34,12.2124-1.014,18.4519a15.2632,15.2632,0,0,0,.3257,2.22C560.45,366.638,584.0017,372.6628,607.7235,373.8323Zm-409.1173-9.37c-3.4861-.4737-7.7049-1.2361-10.103-3.908,5.329-32.2631,6.18-64.97,10.6507-97.3.3479-2.4943,1.1028-3.0346,2.4351-4.8332a88.7083,88.7083,0,0,1,10.2881.2147,2.5075,2.5075,0,0,0,1.6653-.5181c.903-5.1663,1.6727-10.3695,2.48-15.55.17-1.0955.8438-1.88,1.7616-1.8874,3.0864-.03,6.7131,1.4655,9.5849,2.5017a318.003,318.003,0,0,1,57.6206,27.0894c1.14.6884,1.0954,2.2131.8882,3.3159-4.7222,25.017-7.9344,50.2857-12.6122,75.31a171.52,171.52,0,0,1-4.3891,18.4594c-.7105,2.3166-.7475,5.107-3.1308,5.218C244.9765,372.3668,219.434,367.1265,198.6062,364.462Zm17.7562-105.4342c17.9486,2.4869,36.0156,4.3,53.8606,7.4829.977.17,2.1612.1406,1.2879-.3109-7.8456-4.0708-16.002-7.7493-24.2029-11.11-9.2445-3.8414-18.5407-8.001-28.1553-10.8506a12.6724,12.6724,0,0,0-.37,1.2805C217.8723,249.998,217.0285,254.5055,216.3624,259.0278Zm47.2141,110.4154c.1924.03.3923.0666.5921.0962a3.3991,3.3991,0,0,0,1.199-1.4285c2.08-5.4845,3.0124-11.2429,4.1153-16.9938,5.0182-26.1421,7.0758-52.8022,13.13-78.737-26.2679-6.1507-53.7792-7.927-80.4838-11.6426-2.5757,24.9134-3.8118,49.9527-6.3949,74.8661a175.0081,175.0081,0,0,1-3.9228,22.5375c.2813.4071.6884.9992,1.1991,1.11C216.1773,364.41,240.1434,365.698,263.5765,369.4432ZM301.99,391.9659c-12.1532-7.7494-10.6877-27.2967-7.4977-39.3537,2.2056-8.3489,6.5355-17.8746,13.4115-23.2925,2.8644-2.2574,7.52-3.56,11.08-4.2707a41.1935,41.1935,0,0,1,10.3177-.9769,4.3242,4.3242,0,0,0,1.85-.5478c-1.3175-3.6859-2.3981-6.78-2.2945-10.7987.2739-10.1031,7.2757-20.554,15.98-25.3057,16.2611-8.8818,35.2163-4.3743,49.4272,6.21.4292.3257.1924-1.0584.296-1.5839.9918-4.996,1.6432-9.9032,3.2715-14.7438,4.2188-12.56,13.8556-23.1074,27.4817-24.1732,9.8736-.7772,19.3549,4.3447,25.0837,12.3235,3.5231-6.1285,8.0454-10.6212,14.7955-13.0341,6.913-2.4721,15.21-1.3248,22.1453.37,13.182,3.2123,21.4717,14.3219,28.2071,25.2465,2.6719,4.3225,3.6045,11.0652.7549,15.4543-3.6563,5.64-12.131,3.1678-17.1492,1.2212,1.0806,4.16,1.5469,9.4221-2.2575,12.2051-4.3817,3.1974-11.2725.77-15.58-1.3693-.037,3.2419-.3109,6.0692-2.894,7.9714-2.9754,2.1983-8.4229-.3552-11.3465-1.5247-.8586,3.6268-3.1012,7.779-7.0536,8.4451-4.4779.7476-8.645-3.16-11.6648-5.9212-5.5659,9.9106-11.9534,19.2883-17.4083,29.2433-3.39,6.2025-4.1744,12.79-5.7435,19.3623a3.9263,3.9263,0,0,1-2.1094-.0074c-11.9757-5.1366-35.2681-8.3193-48.99-11.7462.0222,3.9672-.5107,7.9566-3.4195,10.88a14.1237,14.1237,0,0,1-10.3621,4.1153,1.6837,1.6837,0,0,0-1.5913.8733c-1.7023,3.1309-2.3315,5.936-5.107,8.3563-3.1753,2.7682-8.4377,2.28-12.1459,1.0658-2.3462,4.3743-5.0626,8.4525-9.97,9.7552-3.5675.9474-7.283-1.5321-10.0808-3.5305-1.7837,4.6037-5.0774,8.9706-9.8662,10.5545A11.2739,11.2739,0,0,1,301.99,391.9659Zm165.4455-84.9321a14.6143,14.6143,0,0,0,8.0972,3.042,2.0663,2.0663,0,0,0,1.54-1.7837c.1851-1.7246.0888-4.7666-1.5025-5.9286-5.1144-3.723-10.6433-7.4015-13.5225-13.1673a3.8116,3.8116,0,0,1,2.4055.4367c7.2164,4.8184,14.5735,10.9542,22.915,13.5966,2.1982.7031,4.4039,1.1768,6.6021.3848,2.0354-.7327,1.7616-3.6415,1.6579-5.6621-.1036-2.0428-.5477-4.7222-2.435-5.9434-6.4689-4.204-15.1361-7.9344-19.3327-14.7364.333-.3108.5921-1.162.9992-.94,7.7493,4.1671,24.64,14.3071,32.4333,15.7578,1.5543.2887,4.0264.6736,5.0478-.8956,2.8866-4.4631.5551-9.6663-2.0576-13.9-5.5437-8.9854-13.9148-18-24.4249-20.7167-7.7272-1.9984-18.2891-3.1679-25.0689,2.1168-2.5757,2.0132-9.03,7.4681-8.6153,11.1985,1.0214,9.2074,3.22,18.4963,1.85,27.6223C457.6213,297.5969,464.09,304.6505,467.4357,307.0338Zm-11.11,8.7486a4.0463,4.0463,0,0,0,3.6934.0962c2.4129-1.7764,3.0864-3.9376,3.005-6.7946a43.31,43.31,0,0,1-8.83-10.9542,53.42,53.42,0,0,1-3.9376,11.6426,2.3955,2.3955,0,0,0-.2664,1.4729,8.3087,8.3087,0,0,0,.7031.74A22.43,22.43,0,0,0,456.326,315.7824Zm-153.61,71.6686a8.0333,8.0333,0,0,0,5.1663,1.9688c4.4483.1924,7.4681-4.4113,8.9262-8.0306,4.056-10.1031,4.4409-21.4643,6.61-32.0929,2.1168,2.8718,2.22,6.5355,2.139,9.955a112.6416,112.6416,0,0,1-2.5609,19.2,4.3434,4.3434,0,0,0,.1036,1.6579c2.5832,2.5535,7.3349,4.0116,10.2955,1.2805,6.5355-6.0248,6.4393-14.7068,7.8308-22.878.1036-.6291.829-2.2057,1.051-1.5987,1.8948,5.255,1.2064,11.0282.3627,16.4609,2.22.74,4.2262,1.347,6.5947.8289a7.511,7.511,0,0,0,5.3735-5.366c1.4951-5.1737,1.6579-10.9246,2.102-16.2315.037-.4441.5773-1.4877.792-1.088,1.8577,3.5453,1.68,7.5347,1.71,11.4575a12.5566,12.5566,0,0,0,2.5831,0,9.4292,9.4292,0,0,0,7.0018-3.7378,8.7962,8.7962,0,0,0,1.0881-8.1638c-7.4755-3.5379-15.4692-6.4985-22.8262-10.8506-5.64-3.3381-9.9846-8.1342-14.4181-12.6936-16.7348.6588-24.1363,1.3841-31.3823,18.8294a57.4654,57.4654,0,0,0-4.4779,19.54C296.4761,373.329,296.7647,382.1589,302.7155,387.451Zm162.4775,17.83a4.2912,4.2912,0,0,1-3.8636-3.9376c-.9918-15.3951-3.9746-31.2491-.6957-46.5036,1.3767-6.4245,7.0388-13.182,13.4411-15.0324,6.24-1.8133,12.6418,1.9984,16.32,6.92,4.7,6.2913,5.6473,15.8466,4.0412,23.2851,6.0322-1.8948,11.9756-2.9384,17.993-.6587a16.98,16.98,0,0,1,10.6064,10.5989c3.6489,11.1614-10.7174,18.6813-19.4438,21.5457C490.9576,405.6365,478.4343,406.0583,465.193,405.2812Zm2.9532-215.6868c-11.5463-6.839-24.0178-16.9716-27.4669-30.4941-1.4063-5.5289-1.0584-12.7232,3.8636-16.4535,4.3594-3.3085,10.8061-1.5025,14.6993,1.5395a30.0411,30.0411,0,0,1,5.8768,6.41c2.59-8.8,9.17-17.475,19.2513-16.0021,4.0338.5922,7.172,4.1671,9.03,7.557,4.4483,8.0972,1.7764,16.7865-3.7155,23.5811-6.4467,7.9788-13.2265,15.7578-20.0655,23.4035a3.4154,3.4154,0,0,1-1.1176.6735C468.3831,189.735,468.2572,189.661,468.1462,189.5944Zm-412.8328-34.58c-8.0676-5.3364-16.3277-10.2658-24.3435-15.6467-7.853-5.2773-12.4641-12.886-10.5175-22.33a13.1091,13.1091,0,0,1,10.51-10.5175c7.3645-1.1472,13.7446,4.0634,17.6081,9.7626a11.0488,11.0488,0,0,0,1.3323,1.5469c1.6505-5.714,4.8406-11.3243,10.6063-13.5374,4.3373-1.68,9.6072-.185,11.9164,3.8932,5.936,10.4879,2.709,22.5228-2.9754,32.4408a69.69,69.69,0,0,1-11.1836,15.1582A5.1053,5.1053,0,0,1,55.3134,155.0146ZM221.8765,343.0051c-3.6045-5.0034-1.9614-11.0579.8512-16.2241a5.0075,5.0075,0,0,1,3.9227-2.9088c1.8874-.4219,3.3973,1.4063,3.9524,2.9088a12.6454,12.6454,0,0,1,.7846,5.144c-.222,3.93-1.2435,9.696-4.7666,12.05A3.6127,3.6127,0,0,1,221.8765,343.0051Zm1.7023-3.6934c.1925,1.2287,1.8948,1.68,2.4425.8586,2.2205-3.9524,3.042-9.4517.6736-13.6113C223.0977,330.1117,222.7573,334.4415,223.5788,339.3117ZM577.444,316.56c-8.1638-8.3488-14.7734-19.1994-13.5447-31.138.2738-2.6868,2.8792-4.9812,5.44-5.4327,6.3505-1.1028,12.22,3.8858,13.6187,9.9994,4.2707-4.5889,12.1162-8.6671,18.0893-4.73,3.6637,2.4055,4.4186,6.4689,3.2936,10.4732a12.8875,12.8875,0,0,1-2.8348,5.1662c-6.0988,6.6169-14.122,11.4649-21.8492,15.8984A1.6662,1.6662,0,0,1,577.444,316.56Zm-15.062,33.0921c-3.2715-5.4845-1.806-10.747.7919-16.2315a4.1265,4.1265,0,0,1,3.1975-2.7015c1.9984-.4811,3.7451,1.0806,4.4779,2.7311,2.6941,6.01.8067,13.9444-3.8118,17.7044C565.4906,352.1533,563.433,351.3465,562.382,349.6516Zm3.2492-2.1168c.2147.222.4367.4515.6588.6809a19.5608,19.5608,0,0,0,1.0806-14.7142C563.0259,336.04,562.3524,344.1745,565.6312,347.5348Zm12.1829,5.07c-3.1975-6.2765-3.1975-13.826-2.8274-20.68l1.3323-1.0584c.2664.3479.7253.6217.8067,1.0584.607,4.3595,1.1843,8.63,1.7986,12.9452l.977,2.0206c1.3841-4.2632,2.6941-8.46,3.9228-12.7453.3034-.94,1.2064-1.0806,1.991-1.2657.6069.8956,1.236,1.4729.8512,2.7386-1.6728,5.5215-2.3389,12.96-6.2691,17.3047A1.7455,1.7455,0,0,1,577.8141,352.6048ZM236.99,312.6516c-6.232-6.8612-13.7667-14.1591-17.2454-22.841-1.2213-3.0421-.6366-5.7954.1258-8.8078a7.6151,7.6151,0,0,1,4.5889-4.5667c7.0462-2.4055,13.8408,3.4787,16.6312,9.4443,2.7089-2.7238,4.5667-5.3957,8.4821-6.4763,3.9524-1.0881,8.3636.2294,10.4731,3.8191,2.7311,4.6408-1.7246,11.6722-4.4039,15.4395-4.3595,6.1285-10.0586,10.525-16.4387,14.2627A1.562,1.562,0,0,1,236.99,312.6516ZM259.143,351.45c-3.982-.1851-7.8752-.3627-11.8128-.8364a2.2324,2.2324,0,0,1-1.65-1.7024c.0888-3.8487,2.8569-8.4747.2516-11.7165,2.9162-2.0354,3.0864-5.0552,4.1375-8.2231.91-2.7607,8.5931-.7031,10.5545-.17a3.388,3.388,0,0,1,1.5321,1.4063c-.3109.5107-.8956,1.1694-1.5321,1.14a19.2484,19.2484,0,0,0-8.0306.6365,42.6765,42.6765,0,0,0-1.0362,4.552,30.7539,30.7539,0,0,1,8.3266.977,6.5246,6.5246,0,0,1,2.1391,1.384c.4959.4219-.77,1.2065-1.3989,1.3545-2.7756.6291-6.1211.0814-8.867-.37-.4515-.074-1.11.6292-1.199.91a25.481,25.481,0,0,0-1.2361,6.24c3.0272.3478,6.0914.7845,9.0816,1.2064a6.6212,6.6212,0,0,1,2.08.8142l-.03,2.0058A4.444,4.444,0,0,1,259.143,351.45ZM236.08,345.2181a46.07,46.07,0,0,1-1.0362-20.4355l2.0725-.1924a112.8727,112.8727,0,0,0,1.347,15.0916c.0962.5551.5181.6587.74.1406,1.6209-3.7673,2.9976-7.6679,4.2632-11.5907a3.9645,3.9645,0,0,1,1.3175-1.4655,1.7612,1.7612,0,0,1,1.7319,1.4655,1.5609,1.5609,0,0,1-.0222.74c-1.3544,4.2041-2.6275,8.4081-4.241,12.5308-1.0436,2.4647-1.6209,3.8857-3.79,5.4178C237.427,346.6392,236.4426,346.41,236.08,345.2181Zm-19.7693-1.9392c-2.7312.3257-8.8744,1.6653-9.0743-1.7541-.296-5.1.9326-15.0843,3.8192-19.2883,1.0288-1.5025,1.8356,1.7023,1.7912,2.3018a108.99,108.99,0,0,1-1.954,13.2931,18.5527,18.5527,0,0,0-.1629,2.3167,35.229,35.229,0,0,1,5.5808.5033c1.1028.2072,1.6579,1.4581,1.954,2.3907C217.6132,343.1161,216.9619,343.1975,216.3106,343.2789Zm333.067,7.5495a1.8107,1.8107,0,0,1-1.2509-1.917,107.7415,107.7415,0,0,1,2.7238-19.6361c.1406-.6439,1.8133.7772,1.88,1.1768.8438,5.0034-.57,10.5472-1.1916,15.5062a8.2979,8.2979,0,0,0,.074,1.9613,12.6,12.6,0,0,1,6.6317.6218c.57.185.5626,1.0954.54,1.5691C555.6318,351.08,552.5084,351.8276,549.3776,350.8284Zm50.9592,6.0545c-3.982.0222-7.8826-.0593-11.8128-.3627a2.1017,2.1017,0,0,1-1.6727-1.7024c.111-4.0264,2.3315-8.3933-.3035-11.6721,2.8348-2.1316,2.7978-5.1218,3.8192-8.2675a2.0788,2.0788,0,0,1,1.85-1.3915,24.8274,24.8274,0,0,1,10.37,1.5322c-2.65,2.0206-4.626,1.6135-8.1565,1.5469-2.2648-.0518-2.1612,4.1966-2.1094,5.7509,3.5009-.0888,7.1942-.3256,10.2363,1.68.4218.2738-1.1843,1.5617-1.48,1.6209-2.6572.4885-5.44.1258-8.1269-.0148-2.5239-.1406-2.5091,5.5363-2.6053,7.2608a66.4171,66.4171,0,0,1,9.992.8956,1.8588,1.8588,0,0,1,1.3545,1.7986C601.4618,356.38,601.1214,356.8384,600.3368,356.8829Z" style="fill: #040203"/>
        <path d="M161.6876,116.4381c-8.6894-5.1737-16.9494-11.0948-25.0911-17.0382-10.6877-7.8012-20.132-17.7784-28.2144-28.2219a68.5238,68.5238,0,0,1-8.1935-12.5233,39.4764,39.4764,0,0,1-3.6045-12.56c-.7772-6.8167.3627-13.5373,5.2995-18.3853,5.4326-5.3364,15.4321-4.7591,21.3532-.9918,8.793,5.5882,15.6912,15.4544,22.1749,23.3739.54.6662,1.5913.37,2.2131.3183.6735-.0518,1.5987-.7327,1.65-1.3323a58.2722,58.2722,0,0,1,1.1768-8.8521,39.9579,39.9579,0,0,1,17.8672-23.7884c4.8184-2.894,11.4871-3.2937,16.942-2.1909,6.1729,1.2509,11.11,5.6326,14.8622,10.5027,3.9154,5.0923,4.9072,11.7536,5.4771,17.9857-9.9032-4.4113-20.4281-1.7764-27.7038,5.5807-7.6383,7.72-5.6917,21.5531-3.2418,30.9974,2.1834,8.3933,6.4911,16.2981,10.9246,23.6774a2.15,2.15,0,0,1-.2887,2.5905c-4.4631,4.167-9.6145,10.5915-15.5431,12.2717A10.2157,10.2157,0,0,1,161.6876,116.4381ZM151.71,92.65c2.1242,1.54,3.7081,2.2649,6.232,2.139,2.7238-.4441,3.5675-1.7467,4.6334-4.3816.6143-1.5322,1.1324-3.6564.2886-5.1441a1.8283,1.8283,0,0,0-2.4721-.3923c-.3849,1.91-1.0806,4.3817-2.4277,5.8176a1.781,1.781,0,0,1-2.213.37,25.21,25.21,0,0,1-5.1663-3.2123c-.3774-.2738-1.8651.1851-1.5839.91A8.0013,8.0013,0,0,0,151.71,92.65Zm13.6409-16.6978c.3627-.0592.7254-.1184,1.0954-.17.5774-2.22.6736-6.5873-1.8355-7.7493-.5625-.2591-1.6284-.57-2.2131-.0074-1.9466,1.8873-1.0584,3.9-.1924,6.158A2.9175,2.9175,0,0,0,165.3513,75.9519Zm-23.6329,5.3365c.7549.1036,1.6949.2147,2.2352-.4515,1.4433-1.9318,1.0066-3.7081.1776-5.9138-.5921-1.5617-2.2056-3.116-3.8857-2.4943-.5847.2147-1.6876.9622-1.6284,1.7542A10.7972,10.7972,0,0,0,141.7184,81.2884Zm229.4461,26.8674C359.0705,92.8347,348.0275,76.8105,342.41,57.9c-4.4187-14.8918-5.3216-32.27,4.5667-45.09a20.1953,20.1953,0,0,1,20.7168-7.4385c7.5347,1.658,13.3227,7.4163,16.4165,14.1739,3.0568,6.6687,4.1374,14.27,5.4845,21.4051a5.8568,5.8568,0,0,0,2.08,3.079c.2887.2961,1.6136-.71,1.769-.977,8.4081-14.011,20.3171-24.832,37.037-24.4841,8.86.1776,15.447,7.2831,17.845,15.0324,1.4581,4.6926,1.0436,9.8588.829,14.7364-.074,1.5543-.4293,2.9532-1.6283,3.7155a84.16,84.16,0,0,1-12.738,5.0553c-.1628.2738-.3257.5551-.4885.8289-.5477.9252-.4515,1.4729.6143,1.2953,3.2345-.5329,6.3579-1.14,9.6-1.8356.71-.1554,1.014.1406,1.5987.54-.1184.37-.3627,1.11-.5107,1.48C440.9087,71,430.369,80.7555,420.1032,87.4983c-14.0333,9.2222-29.71,15.4173-44.3054,23.7365C373.8735,112.1748,372.5042,109.8434,371.1645,108.1558Zm42.936-38.31,1.9318-.0074a12.2791,12.2791,0,0,0,1.9762-5.9952c.1629-4.7369-1.6283-10.2955-6.75-11.5019a7.3048,7.3048,0,0,0-5.8768,1.162c-2.9162,2.0873-6.3431,7.2017-6.2395,11.08a1.7252,1.7252,0,0,0,2.1983,1.3544,4.0822,4.0822,0,0,0,1.0658-1.3544c.8808-2.5388,2.4573-5.6252,4.5741-7.29.91-.718,2.3537-1.48,3.5453-.9622C415.5512,58.5955,415.3588,65.3308,414.1005,69.8457ZM375.3686,60.89c.185.37.2516,1.3989.5551,1.1176a10.006,10.006,0,0,0,3.5453-6.2912,9.5616,9.5616,0,0,0-5.862-10.0142c-3.93-1.584-8.8522,1.2582-10.5693,4.8627-1.4433,3.02-2.22,5.5067-1.6432,8.682,1.1251-.0888,2.1687.0074,2.598-1.31,1.051-3.22,2.9606-9.0446,7.3867-8.2378C376.0569,50.5426,376.6712,57.0337,375.3686,60.89Zm4.1522,17.6008a8.7919,8.7919,0,0,0,8.86,1.5321,10.4216,10.4216,0,0,0,5.04-3.02c1.4729-1.4211,2.3093-2.8866,1.51-4.87-.5847-.0666-1.6505-.1777-2.1168.2886-2.0132,1.9984-4.9368,5.7436-8.1121,4.8554-3.7229-1.0436-5.7731-4.7888-6.5947-8.3415-.5329-.1924-1.0658-.3848-1.5913-.5773a5.5348,5.5348,0,0,0-.6291,1.3915C375.2279,73.31,376.8415,76.1962,379.5208,78.4907Zm189.071,74.4c-5.6251-5.5511-10.3177-11.9238-14.988-18.1706a127.42,127.42,0,0,1-11.6129-19.2291c-5.3291-10.5989-8.83-21.0794-8.5635-33.1809.185-8.6449,2.4646-17.1048,8.297-23.6255a18.9808,18.9808,0,0,1,18.711-5.3143c9.3629,2.82,15.6689,12.2421,19.3993,20.8426a42.53,42.53,0,0,1,3.1086,17.697c-.0222.9029,1.162,1.5543,1.8874,1.7541a1.91,1.91,0,0,0,1.4729-.1628c6.61-4.811,12.99-9.9624,19.984-14.2109a28.9343,28.9343,0,0,1,18.4075-3.7229c6.1358.977,12.05,6.0692,13.4411,11.9238,3.1827,13.4189-6.4245,27.4-14.7364,36.8594a117.7544,117.7544,0,0,1-21.6419,18.6443c-7.3053,5.07-15.6245,11.2059-24.3287,13.2931C574.2318,157.0279,570.82,155.1405,568.5918,152.89Zm-6.6539-45.1713a2.5489,2.5489,0,0,0,1.4729-.1628,6.6324,6.6324,0,0,0,2.5313-4.5667,2.5773,2.5773,0,0,0-.94-2.3093,3.0515,3.0515,0,0,0-1.5913-.4441c-2.4647.6218-3.19,2.4351-3.3011,4.9664A2.4721,2.4721,0,0,0,561.9379,107.7191Zm28.059,9.3851a1.7555,1.7555,0,0,0,1.48-.0666,5.4178,5.4178,0,0,0,2.6128-4.4483,3.7112,3.7112,0,0,0-.3479-1.5543c-.4145-.4515-1.51-1.3323-2.2649-1.0806-2.08.6957-2.9458,2.7237-2.8866,4.848A2.6079,2.6079,0,0,0,589.9969,117.1042Zm-23.84,8.7708a7.0351,7.0351,0,0,0,7.5866,3.0716c2.5609-.7327,6.0618-2.9088,6.3208-6.0174.03-.3775-.1924-1.2213-.5107-1.014-1.8207,1.1842-5.6917,4.0708-7.9936,2.8274-2.48-1.34-4.0338-4.1523-4.9664-6.987-.0666-.2147-.9918-1.1769-1.1324-.644A11.3956,11.3956,0,0,0,566.1567,125.875Zm-344.68,9.7848a18.6217,18.6217,0,0,1-5.5141-3.8784c-16.7274-15.6838-32.4259-33.98-37.3405-56.88-2.1909-10.214-1.2953-24.07,10.3991-28.1108,16.6015-5.7436,30.99,13.0784,38.71,25.18.8289,1.3027,2.05,1.2731,3.3454,1.0807A2.9059,2.9059,0,0,0,232.246,71.97c3.5009-13.8777,13.13-25.7571,26.9192-30.4275,6.5947-2.2352,14.9362.8734,19.155,6.4467,8.2971,10.9616,5.61,27.1339.0889,38.71-5.3,11.1022-14.2183,20.5687-23.2629,28.8288-8.0676,7.3645-18.0523,16.7126-28.5032,20.1247A8.3811,8.3811,0,0,1,221.4768,135.66Zm8.1268-26.9637a7.77,7.77,0,0,0,7.3793,1.7838c4.5889-1.5617,5.6918-6.691,5.3883-11.0652-1.6949,2.1316-4.4779,6.92-7.6013,7.1276-2.9384.1924-5.9508-2.5535-7.779-4.8036C226.8873,104.2626,227.5608,107.0234,229.6036,108.6961Zm18.4594-15.98a2.2429,2.2429,0,0,0,2.4572-1.5469c.77-1.7764.8216-4.5963-1.11-5.81a2.2475,2.2475,0,0,0-2.08-.259c-.6883.2886-1.5321.7919-1.6579,1.6357C245.3688,88.7269,245.539,92.2278,248.063,92.7163Zm-29.5394,1.7024a2.0944,2.0944,0,0,0,1.2287-.2961c2.028-1.4285,1.8281-5.24-.0815-6.6465a1.8242,1.8242,0,0,0-1.8873-.2961c-1.6876.7994-1.9022,2.28-1.6284,3.9894C216.4438,92.9828,217.4208,93.4491,218.5236,94.4187Zm-57.28,39.3167c-.0592-4.3521,2.3685-8.2971,5.5881-11.05a4.2625,4.2625,0,0,1,3.6341.8734,8.4568,8.4568,0,0,1,3.3455,6.7946c-.0074.37-.7179.185-1.0732.2812a9.3355,9.3355,0,0,0-5.1514-1.1324c-1.85.1628-3.1309,1.91-4.3817,3.0938A8.8853,8.8853,0,0,1,161.2435,133.7354Zm68.36,13.034c-1.51-.866-2.7681-2.065-4.4335-2.2131-1.6949-.1554-2.9087,1.6358-3.96,2.7164-.3553.3627-.903-.4737-1.3471-.7106,1.0806-3.0124,2.79-7.2238,6.7871-7.1054a4.3113,4.3113,0,0,1,3.96,2.672,5.2,5.2,0,0,1,.0519,5.2476C230.3068,147.1691,229.9515,146.9692,229.6036,146.7694Zm344.8872,21.109c-1.0288-1.0436-1.9984-2.2278-2.9532-3.3972a3.77,3.77,0,0,0-1.0214-.7772,8.4925,8.4925,0,0,1-5.9064,1.0954,6.4151,6.4151,0,0,1,3.2345-5.899c.8733-.5921,2.7829-.2442,3.6933.0518,3.3233,1.0733,3.8488,5.8842,3.9672,8.7856C575.52,168.0783,574.8313,167.8266,574.4908,167.8784Zm28.7992,55.748a2.1205,2.1205,0,0,1-2.4943-1.7393q-1.3989-12.168-2.0132-24.3805c-.4663-8.9262-1.1842-21.2941,5.2625-28.3625,3.7747-4.1374,8.4673-6.4837,13.974-4.1,10.7913,4.6777,11.2354,20.6871,8.3562,30.3091,8.8744-2.3019,19.6732-5.07,27.1265,2.5091,3.042,3.0938,4.1448,8.83,1.014,12.1976-7.853,8.4451-20.1765,11.9238-31.3009,13.2857C616.62,224.1,609.9217,223.2268,603.29,223.6264ZM421.6205,359.3179c-16.6534-5.4919-33.9655-9.052-50.9445-13.219-8.9706-2.1983-17.49-6.6836-25.0688-11.835-7.6532-5.1958-13.9592-14.24-11.9682-23.744,2.968-14.196,16.3351-23.2555,30.3757-23.3073,12.4345-.0444,22.93,5.1219,31.708,13.8112a6,6,0,0,0,1.88-2.3315c1.695-7.209,2.1539-14.5,4.6926-21.4051A34.9439,34.9439,0,0,1,412.7609,262.24c7.4829-5.9878,19.2957-5.8768,27.26-1.31,5.5437,3.1752,8.4155,9.7847,9.7921,15.6171,5.81,24.6766-11.4723,47.9616-22.4117,68.6858-2.139,4.1967-2.5757,8.8448-3.9672,13.2783l-.3626,1.2878C422.5827,359.6362,422.1016,359.4734,421.6205,359.3179ZM405.3668,334.967a4.1306,4.1306,0,0,0,3.6933-.0222c2.99-1.6727,3.4491-3.4417,3.9524-6.7131a8.0291,8.0291,0,0,0-3.9524-8.3637c-.7475-.4219-.8881.1776-.5847.977,1.3175,3.5083,1.7394,7.7272-1.6653,9.992-2.8792-1.7911-4.5889-3.96-6.5355-7.1276-.5033-.8142-1.3989-.74-2.2131-.6736a3.7571,3.7571,0,0,0-.1406,2.2427C399.379,329.4751,401.3626,332.8428,405.3668,334.967Zm-24.3657-9.3554a1.9347,1.9347,0,0,0,2.213-.3405c.9252-1.4211.6588-2.9014.0074-4.4261-.6883-1.6209-2.4721-3.0642-4.1448-2.213a2.4548,2.4548,0,0,0-1.088,1.48A5.71,5.71,0,0,0,381.0011,325.6116ZM418.66,310.3867c.1332.0888.2664.185.3922.2739,1.3175-.4663,2.9384-1.4507,2.598-3.1087-.3849-1.8874-1.0658-3.8784-2.99-4.5593-.4-.1406-1.3619.4441-1.5988.7772C415.5882,305.8792,416.6023,308.98,418.66,310.3867Zm-308.6939.7624c-13.6706-9.3185-29.7022-14.3663-43.5356-23.4554C55.6761,280.6253,45.7137,270.7,40.3846,258.8131c-.3775-.8437-.7624-1.3322.1554-1.2212a69.9807,69.9807,0,0,1,8.867,1.65,8.8528,8.8528,0,0,0,2.213.1628l.8512-.9029a4.0745,4.0745,0,0,0-1.5913-1.5766c-3.7748-1.3988-7.7716-2.3388-11.3687-4.0486-2.5831-1.2286-2.2945-5.7657-2.3759-8.0972-.2886-8.3341,1.5617-16.8458,8.63-22.2415,7.209-5.5067,17.2306-4.1226,25.01-.71,9.7848,4.278,16.757,12.4937,22.2711,21.42a3.6527,3.6527,0,0,0,1.7467,1.0732,7.3461,7.3461,0,0,0,2.0946-3.2344c2.28-11.1171,3.4861-24.8986,13.8556-31.8338,9.6738-6.4689,21.4644-5.1219,28.8436,3.8191,10.2437,12.3975,8.3859,30.546,4.4779,44.9937-5.329,19.74-18.0078,37.3035-31.1454,52.7134A2.528,2.528,0,0,1,109.966,311.1491Zm-.4589-50.1229c.3849.2812.7845.5625,1.1768.8437l.5773-.148c-1.0214-3.6563-1.5173-10.214,3.1383-11.6869,5.1292-1.6284,7.1424,5.07,8.4969,8.7781.2812.7772,2.4129.9474,2.5017-.148a12.8383,12.8383,0,0,0-6.6021-12.3605,7.9677,7.9677,0,0,0-10.6582,3.6637C106.5465,253.1954,106.1394,258.6355,109.5071,261.0262Zm-14.64,17.6969c2.6868,1.6284,6.0989,2.62,9.1557,1.5247a9.6147,9.6147,0,0,0,5.7435-5.1884c.9326-1.9244,1.4877-3.9672.4589-5.9064-.2738-.5181-1.0732-.5181-1.65-.5847-1.0954,3.227-2.3981,7.3867-5.9952,8.6671-3.7452,1.3175-6.4985-2.1538-8.867-4.5519-.54-.5477-2.0354-.8067-2.4351.1628C90.389,275.0224,93.098,277.6647,94.8669,278.7231ZM70.82,270.1078c.4737-.0814.94-.1628,1.4137-.2369-.57-3.264-1.3027-11.82,3.0642-13.182,5.4179-1.68,7.024,5.1218,9.4443,8.904.2517.3923.8438.4145,1.2583.6291l1.4062-1.28c-1.0954-4.4113-2.8643-9.2371-6.9944-11.687a7.6446,7.6446,0,0,0-5.8916-.6291A7.4248,7.4248,0,0,0,69.9017,256.6C68.1846,260.5377,67.2446,266.8733,70.82,270.1078ZM464.89,401.64c-1.7838-14.655-3.7674-29.9021-1.3249-44.5718,1.1324-6.4023,5.64-12.6418,11.983-14.2109,6.0026-1.4877,11.835,3.9154,14.0184,9.0446,2.857,6.7206,2.5905,14.877.97,21.9307,8.5709-1.8578,16.9642-4.3743,24.832.8215,4.093,2.6942,6.3727,8.1713,3.9746,12.6344-3.4639,6.4319-13.0118,9.9106-19.4807,12.0126a61.3433,61.3433,0,0,1-13.2561,2.8422C479.4409,402.7943,471.958,403.2532,464.89,401.64Zm-343.851,7.2756c-13.4411-10.821-29.2285-21.0054-38.6506-35.66a21.6077,21.6077,0,0,1-2.9754-13.2634,12.0466,12.0466,0,0,1,10.6138-11.3391c12.3382-1.5691,22.5967,7.927,28.71,17.6229,2.968-4.73,5.6548-9.5553,8.9558-13.9814,3.4195-4.5889,10.6878-7.061,16.2167-6.41a10.9175,10.9175,0,0,1,7.6605,4.5223c2.1317,2.9458,1.8282,6.92,1.4285,10.3177-1.4729,12.3531-8.5339,24.5508-16.38,33.9358A153.6757,153.6757,0,0,1,123.6,407.99c-.5773.54-1.2064,1.014-1.8133,1.5247C121.5419,409.315,121.29,409.1152,121.0386,408.9153ZM56.7937,152.0318c-9.622-6.9574-22.0861-12.6417-29.7392-21.7455a14.4112,14.4112,0,0,1-2.8866-11.043c.4441-3.1309,1.5173-5.7362,4.2559-7.3793,5.04-3.0272,12.9526.6217,15.9428,5.1884,2.28,3.4861,2.8422,7.0462,4.4039,10.7766.9252-.3479,2.7533-1.5321,3.19-2.6868,1.2879-3.4268,1.68-6.95,3.2715-10.288,1.7985-3.7748,5.4179-7.1129,9.6737-6.8094,4.4927.3109,5.9138,6.1062,6.2691,9.7108,1.2582,12.8119-6.6836,24.8023-13.6854,34.78C57.2526,152.3649,57.0231,152.1947,56.7937,152.0318Zm409.8722,33.2253c-9.7921-7.4385-20.1986-17.2824-22.197-29.8576-.4885-3.042.0962-8.867,3.76-9.7625,4.1671-1.0288,7.4459.5033,10.3029,3.3232a67.9219,67.9219,0,0,1,8.6523,11.3465c3.2789-5.5511,1.3471-2.9828,2.3093-9.3037.7105-4.7,4.2558-8.8669,8.3119-11.1318a9.1948,9.1948,0,0,1,6.5577-.7994c2.85.6366,4.885,3.538,6.0618,6.0249a14.9706,14.9706,0,0,1-.074,11.7535c-5.1,10.88-15.4913,19.5029-22.2267,29.51C467.6355,185.99,467.147,185.62,466.6659,185.2571ZM238.0191,309.0322a24.9624,24.9624,0,0,1-2.0354-2.213c-4.4779-5.3217-9.4369-10.821-12.4863-17.016-1.4211-2.8866-1.5321-8.0159,1.695-9.7848,4.3224-2.3759,9.0076,1.0658,11.265,4.67,1.3693,2.1983,2.1761,5.2847,2.8792,7.6236.2516.8363,1.9688-.4071,2.08-.6218,2.3019-4.4261,6.8094-10.2066,12.5455-9.03a3.6947,3.6947,0,0,1,2.9384,2.4129c1.4285,3.93-1.6431,8.2009-3.6119,11.3539-3.3011,5.2847-8.2156,9.4813-13.3449,12.8342A1.823,1.823,0,0,1,238.0191,309.0322Zm337.7522,1.48a45.0668,45.0668,0,0,1-8.7412-19.947c-.5255-3.0346.4071-6.9574,3.7674-7.5051,6.0914-.9918,9.0816,7.4533,10.066,11.9386.1776.7994,1.0658,1.199,1.7541,1.3841,1.1991.3256,1.1621.6291,1.5618-.5477a12.8345,12.8345,0,0,1,8.8-8.4229,6.8277,6.8277,0,0,1,6.4985,1.0584,4.8346,4.8346,0,0,1,1.769,4.3151c-.3479,2.2056-.6069,4.241-2.25,5.8471a81.205,81.205,0,0,1-19.3623,14.2553C577.8289,313.6582,576.9185,311.9632,575.7713,310.5125Z" style="fill: #ec353c"/>
      </g>
    </g>
  </g>
</svg>
